<svg xmlns="http://www.w3.org/2000/svg" width="49.51" height="53.716" viewBox="0 0 49.51 53.716"><defs><style>.a{fill:#fff;}</style></defs><g transform="translate(-20.042 0)"><g transform="translate(20.042 8.406)"><path class="a" d="M31.764,80.121A11.722,11.722,0,1,0,43.485,91.843,11.735,11.735,0,0,0,31.764,80.121Zm0,21.866A10.145,10.145,0,1,1,41.908,91.843,10.156,10.156,0,0,1,31.764,101.987Z" transform="translate(-20.042 -80.121)"/></g><g transform="translate(27.758 10.929)"><path class="a" d="M101.109,111.635a.788.788,0,0,0,.788-.788v-.841a3.315,3.315,0,0,0-3.311-3.311h-.053v-1.735a.788.788,0,1,0-1.577,0v1.753a3.732,3.732,0,0,0,.368,7.446h.841a2.155,2.155,0,0,1,0,4.31H96.9a1.737,1.737,0,0,1-1.735-1.735.788.788,0,0,0-1.577,0,3.315,3.315,0,0,0,3.311,3.312h.053v1.735a.788.788,0,0,0,1.577,0v-1.753a3.732,3.732,0,0,0-.368-7.446h-.841a2.155,2.155,0,0,1,0-4.31h1.261a1.737,1.737,0,0,1,1.735,1.735v.841A.788.788,0,0,0,101.109,111.635Z" transform="translate(-93.592 -104.171)"/></g><g transform="translate(20.042 31.955)"><g transform="translate(0)"><path class="a" d="M44.38,311.2a.788.788,0,0,0,.788-.788v-5.046a.789.789,0,0,0-.788-.788H22.513a.789.789,0,0,0-.788.788v4.258h-.894a.788.788,0,0,0-.788.788v5.046a.788.788,0,0,0,.788.788h.894v3.469h-.894a.788.788,0,0,0-.788.788v5.046a.788.788,0,0,0,.788.788H42.7a.788.788,0,0,0,.788-.788v-4.258h.894a.788.788,0,0,0,.788-.788V315.46a.788.788,0,0,0-.788-.788h-.894V311.2Zm-22.76,3.469V311.2h20.29v3.469Zm20.29,10.092H21.62v-3.469h20.29Zm1.682-8.515v3.469H23.3v-3.469ZM23.3,309.625v-3.469h20.29v3.469Z" transform="translate(-20.043 -304.579)"/></g></g><g transform="translate(44.436 0)"><g transform="translate(0 0)"><path class="a" d="M277.5,14.581,265.724.283a.8.8,0,0,0-1.217,0l-11.774,14.3a.8.8,0,0,0,.609,1.29h5.1V40.312a.788.788,0,0,0,.788.788H271a.788.788,0,0,0,.788-.788V37a.788.788,0,1,0-1.577,0v2.523h-10.2V15.082a.788.788,0,0,0-.788-.788h-4.216l10.1-12.269,10.1,12.269H271a.788.788,0,0,0-.788.788V33.269a.788.788,0,1,0,1.577,0V15.87h5.1A.8.8,0,0,0,277.5,14.581Z" transform="translate(-252.558 0)"/></g></g><g transform="translate(50.319 43.729)"><g transform="translate(0)"><path class="a" d="M321.192,416.807H309.417a.788.788,0,0,0,0,1.577h11.774a.788.788,0,0,0,0-1.577Z" transform="translate(-308.629 -416.807)"/></g></g><g transform="translate(50.319 47.934)"><g transform="translate(0)"><path class="a" d="M321.192,456.888H309.417a.788.788,0,0,0,0,1.577h11.774a.788.788,0,0,0,0-1.577Z" transform="translate(-308.629 -456.888)"/></g></g><g transform="translate(50.319 52.139)"><g transform="translate(0)"><path class="a" d="M321.192,496.97H309.417a.788.788,0,0,0,0,1.577h11.774a.788.788,0,0,0,0-1.577Z" transform="translate(-308.629 -496.97)"/></g></g></g></svg>