<svg xmlns="http://www.w3.org/2000/svg" width="48.419" height="48.589" viewBox="0 0 48.419 48.589"><defs><style>.a{fill:#fff;}</style></defs><g transform="translate(-0.894)"><path class="a" d="M245.992,6.174a.956.956,0,0,0,.956-.956V.956a.956.956,0,0,0-1.911,0V5.218A.956.956,0,0,0,245.992,6.174Z" transform="translate(-220.973)"/><path class="a" d="M48.38,107.191l-1.688-1.684a3.2,3.2,0,0,0-3.787-.54l-3.182-3.178.155-.155a3.317,3.317,0,0,0,0-4.684,3.281,3.281,0,0,0-1.664-.9,3.338,3.338,0,0,0,.132-.93,3.31,3.31,0,0,0-2.633-3.242,3.337,3.337,0,0,0,.132-.93,3.306,3.306,0,0,0-2.632-3.24,3.307,3.307,0,0,0-3.535-4.221l-6.3-1.193a3.406,3.406,0,0,0-2.92.388,1.727,1.727,0,0,0-.145.15,3.324,3.324,0,0,0-3.487.767,3.288,3.288,0,0,0-.968,2.343,3.342,3.342,0,0,0,.132.93,3.31,3.31,0,0,0-2.632,3.238,3.332,3.332,0,0,0,.132.932,3.314,3.314,0,0,0-2.054,5.114,3.312,3.312,0,0,0-1.272,5.479l.154.154-3.182,3.176a3.2,3.2,0,0,0-3.615.626l-1.689,1.685a3.193,3.193,0,0,0,0,4.509l2.108,2.106a.956.956,0,1,0,1.351-1.352l-2.108-2.106a1.281,1.281,0,0,1,0-1.8l1.689-1.685a1.28,1.28,0,0,1,1.559-.191.964.964,0,0,0,.12.147.951.951,0,0,0,.275.191l9.689,9.674a.941.941,0,0,0,.461.466,1.279,1.279,0,0,1-.053,1.745l-1.688,1.686a1.284,1.284,0,0,1-1.807,0l-2.108-2.109a.956.956,0,1,0-1.352,1.352l2.11,2.11a3.2,3.2,0,0,0,4.507,0l1.689-1.687a3.2,3.2,0,0,0,.447-3.947l3.581-3.577.011-.012c.41-.424,1.552-.345,2.656-.268a13.745,13.745,0,0,0,2.514.017l3.922,3.917a3.194,3.194,0,0,0,.542,3.784l1.689,1.687a3.2,3.2,0,0,0,4.508,0L48.381,111.7a3.192,3.192,0,0,0,0-4.509ZM23.018,84.173l4.146.785-2.482,2.481a6.025,6.025,0,0,1-1.487-1.081,4.4,4.4,0,0,1-1.407-2.173h0a.835.835,0,0,1,0-.094A3.238,3.238,0,0,1,23.018,84.173Zm-4.845.779a1.41,1.41,0,0,1,1.783-.169,6.836,6.836,0,0,0,1.918,2.955,7.078,7.078,0,0,0,2.754,1.706,1.4,1.4,0,0,1-2.144,1.791h0l-4.31-4.3a1.407,1.407,0,0,1,0-1.981Zm-2.5,4.171a1.41,1.41,0,0,1,1.986,0l3.471,3.464a1.4,1.4,0,0,1-1.988,1.985h0L16.51,91.94l-.013-.012-.824-.823a1.4,1.4,0,0,1,0-1.982Zm-2.5,4.17a1.414,1.414,0,0,1,1.98-.007l2.641,2.64a1.4,1.4,0,0,1-1.988,1.98l-.957-.956h0l-1.675-1.673a1.406,1.406,0,0,1,0-1.983ZM11.508,98.3a1.413,1.413,0,0,1,1.989,0l.959.958a1.4,1.4,0,0,1-1.989,1.979l-.12-.12,0,0-.006,0-.828-.825a1.4,1.4,0,0,1,0-1.982Zm19.477,10.862a.956.956,0,0,0-1.352,0l-.85.849c-.808.808-2.272.706-3.688.608-1.537-.107-3.127-.217-4.156.839l-3.52,3.516-8.8-8.79,3.115-3.11a3.314,3.314,0,0,0,5.045-2.827c0-.008,0-.016,0-.025H16.8a3.306,3.306,0,0,0,3.313-3.309c0-.008,0-.016,0-.025h.025a3.3,3.3,0,0,0,3.313-3.335h.026a3.315,3.315,0,0,0,2.829-5.039l2.731-2.729a1.4,1.4,0,0,1,.717-.382c.028,0,.057-.008.084-.013a1.4,1.4,0,0,1,1.19,2.377L30.2,88.6l-.008.008-.958.956a.956.956,0,0,0,1.351,1.352l.835-.834h0l.126-.126a1.408,1.408,0,0,1,1.983,0,1.4,1.4,0,0,1,0,1.981l-.836.838h0l-.958.954a.956.956,0,0,0,1.349,1.354l.962-.958a1.4,1.4,0,0,1,1.985,1.982L34.358,97.78a.956.956,0,1,0,1.352,1.351l.817-.817.014-.013a1.4,1.4,0,0,1,1.986,1.982l-.831.83h0l-1.319,1.317a.956.956,0,0,0,1.351,1.353l.645-.644,3.092,3.088-8.8,8.792-3.154-3.15a3.758,3.758,0,0,0,.628-.505l.85-.849a.955.955,0,0,0,0-1.351Zm16.045,1.184L36.787,120.579a1.284,1.284,0,0,1-1.806,0l-1.689-1.687a1.278,1.278,0,0,1,0-1.8L43.535,106.86a1.284,1.284,0,0,1,1.807,0l1.688,1.684a1.281,1.281,0,0,1,0,1.8Z" transform="translate(0 -74.357)"/><path class="a" d="M85.486,7.853A.956.956,0,0,0,86.837,6.5L83.354,3.024A.956.956,0,0,0,82,4.377Z" transform="translate(-73.159 -2.484)"/><path class="a" d="M372.607,8.132a.953.953,0,0,0,.675-.279l3.48-3.476a.956.956,0,1,0-1.351-1.352L371.932,6.5a.956.956,0,0,0,.675,1.632Z" transform="translate(-335.573 -2.485)"/><path class="a" d="M60.2,430.479a.956.956,0,0,0,.012,1.352l0,0a.956.956,0,1,0-.014-1.354Z" transform="translate(-53.433 -389.368)"/><path class="a" d="M333.468,334.03a.956.956,0,1,0-.429-1.81l-.005,0a.955.955,0,0,0,.435,1.807Z" transform="translate(-300.145 -300.6)"/></g></svg>