<svg xmlns="http://www.w3.org/2000/svg" width="46.348" height="53.626" viewBox="0 0 46.348 53.626"><defs><style>.a{fill:#fff;}</style></defs><g transform="translate(-34.707)"><path class="a" d="M76.325,12.295a12.307,12.307,0,0,1-7.666-7.6,1.209,1.209,0,0,0-1.142-.819H48.245a1.209,1.209,0,0,0-1.142.819,12.307,12.307,0,0,1-7.666,7.6,1.208,1.208,0,0,0-.824,1.144v9.136A28.309,28.309,0,0,0,44.325,39.7a29.356,29.356,0,0,0,13.137,9.785,1.211,1.211,0,0,0,.839,0A29.205,29.205,0,0,0,69.992,41.47a.786.786,0,1,0-1.178-1.042,27.631,27.631,0,0,1-10.933,7.533,27.769,27.769,0,0,1-12.3-9.207,26.749,26.749,0,0,1-5.4-16.18V13.7A13.9,13.9,0,0,0,48.5,5.447H67.257A13.9,13.9,0,0,0,75.576,13.7v8.875A26.8,26.8,0,0,1,71.034,37.55a.786.786,0,0,0,1.306.876,28.37,28.37,0,0,0,4.808-15.852V13.439a1.208,1.208,0,0,0-.824-1.144ZM55.522,31.7a2.359,2.359,0,1,0,4.718,0V29.643a2.808,2.808,0,0,0,.472-1.565,2.843,2.843,0,0,0-.887-2.058,2.809,2.809,0,0,0-2.109-.768,2.83,2.83,0,0,0-2.194,4.39Zm1.106-3.741a1.26,1.26,0,0,1,1.178-1.141l.075,0a1.258,1.258,0,0,1,1.015,2,1.182,1.182,0,0,0-.228.706V31.7a.786.786,0,1,1-1.573,0V29.527a1.183,1.183,0,0,0-.229-.706,1.245,1.245,0,0,1-.238-.858ZM79.4,9.022A8.338,8.338,0,0,1,71.96,1.647,1.831,1.831,0,0,0,70.136,0H45.627A1.831,1.831,0,0,0,43.8,1.647a8.338,8.338,0,0,1-7.445,7.375,1.83,1.83,0,0,0-1.65,1.824V22.574a32.146,32.146,0,0,0,6.384,19.3,32.888,32.888,0,0,0,16.226,11.66,1.841,1.841,0,0,0,1.129,0,32.888,32.888,0,0,0,16.226-11.66,32.146,32.146,0,0,0,6.384-19.3V10.846A1.83,1.83,0,0,0,79.4,9.022Zm.078,13.552a30.585,30.585,0,0,1-6.073,18.365,31.113,31.113,0,0,1-15.449,11.1.257.257,0,0,1-.157,0,31.112,31.112,0,0,1-15.449-11.1A30.586,30.586,0,0,1,36.28,22.574V10.846a.261.261,0,0,1,.237-.26,9.917,9.917,0,0,0,8.85-8.777.262.262,0,0,1,.26-.237H70.136a.262.262,0,0,1,.26.237,9.917,9.917,0,0,0,8.85,8.777.262.262,0,0,1,.237.26ZM51.505,13.3a.786.786,0,0,0-1.331-.837,9.064,9.064,0,0,0-1.392,4.833v4.373a3.934,3.934,0,0,0-2.014,3.43v9.121A3.936,3.936,0,0,0,50.7,38.148H65.063a3.936,3.936,0,0,0,3.931-3.931V25.095a3.934,3.934,0,0,0-2.014-3.43V17.291A9.1,9.1,0,0,0,53,9.613a.786.786,0,0,0,.845,1.326,7.523,7.523,0,0,1,11.559,6.352V21.18c-.114-.01-.229-.016-.345-.016H63.835V17.291a5.954,5.954,0,1,0-11.908,0v3.872H50.7c-.116,0-.231.006-.345.016V17.291a7.5,7.5,0,0,1,1.151-4Zm1.994,4a4.381,4.381,0,1,1,8.763,0v3.872H53.5Zm-2.8,5.445H65.063a2.362,2.362,0,0,1,2.359,2.359v9.121a2.362,2.362,0,0,1-2.359,2.359H50.7a2.362,2.362,0,0,1-2.359-2.359V25.095A2.362,2.362,0,0,1,50.7,22.736Z"/></g></svg>