<svg xmlns="http://www.w3.org/2000/svg" width="42.495" height="42.494" viewBox="0 0 42.495 42.494"><defs><style>.a{fill:#fff;}</style></defs><g transform="translate(0)"><path class="a" d="M.885,30.163a.883.883,0,0,1-.848-1.138C.328,28.056,2.929,19.5,4.823,17.6a5.472,5.472,0,0,1,7.739,7.739c-1.895,1.895-10.454,4.5-11.422,4.786a.973.973,0,0,1-.255.035ZM8.694,17.771a3.7,3.7,0,0,0-2.619,1.082c-1.022,1.023-2.721,5.593-3.844,9.08,3.485-1.123,8.056-2.822,9.078-3.844a3.7,3.7,0,0,0-2.615-6.317Z" transform="translate(0 12.331)"/><path class="a" d="M2.385,9.541A.886.886,0,0,1,1.5,8.656V6.885a.885.885,0,0,1,1.771,0V8.656A.886.886,0,0,1,2.385,9.541Z" transform="translate(1.156 4.624)"/><path class="a" d="M3.984,11.624H.885a.885.885,0,1,1,0-1.771h3.1a1.328,1.328,0,1,0,0-2.656H3.1A3.1,3.1,0,0,1,3.1,1H6.2a.885.885,0,1,1,0,1.771H3.1a1.328,1.328,0,0,0,0,2.656h.885a3.1,3.1,0,1,1,0,6.2Z" transform="translate(0 0.771)"/><path class="a" d="M2.385,3.541A.886.886,0,0,1,1.5,2.656V.885a.885.885,0,1,1,1.771,0V2.656A.886.886,0,0,1,2.385,3.541Z" transform="translate(1.156 0)"/><path class="a" d="M22.385,25.541a.886.886,0,0,1-.885-.885V22.885a.885.885,0,1,1,1.771,0v1.771A.886.886,0,0,1,22.385,25.541Z" transform="translate(16.568 16.953)"/><path class="a" d="M23.984,27.624h-3.1a.885.885,0,1,1,0-1.771h3.1a1.328,1.328,0,0,0,0-2.656H23.1a3.1,3.1,0,1,1,0-6.2h3.1a.885.885,0,1,1,0,1.771H23.1a1.328,1.328,0,1,0,0,2.656h.885a3.1,3.1,0,1,1,0,6.2Z" transform="translate(15.412 13.1)"/><path class="a" d="M22.385,19.541a.886.886,0,0,1-.885-.885V16.885a.885.885,0,0,1,1.771,0v1.771A.886.886,0,0,1,22.385,19.541Z" transform="translate(16.568 12.329)"/><path class="a" d="M17.2,33.757a.889.889,0,0,1-.627-.259L5.193,22.119A.887.887,0,0,1,5.158,20.9l8.529-9.554C19.648,4.374,29.363-.139,37.821,0a.884.884,0,0,1,.864.864c.2,8.47-4.368,18.173-11.36,24.147l-9.538,8.517A.877.877,0,0,1,17.2,33.757ZM7.036,21.459l10.2,10.2,8.929-7.971C32.547,18.227,36.787,9.53,36.918,1.773c-7.757.129-16.452,4.37-21.9,10.74Z" transform="translate(3.802 0.001)"/><path class="a" d="M14.692,30.09a.822.822,0,0,1-.253-.039.876.876,0,0,1-.627-.683L12.6,20.892a.885.885,0,1,1,1.753-.251l.949,6.622a20.672,20.672,0,0,0,4.827-13.207.885.885,0,0,1,1.771,0A22.422,22.422,0,0,1,15.377,29.8a1,1,0,0,1-.685.285Z" transform="translate(9.7 10.149)"/><path class="a" d="M10.615,15.463a.764.764,0,0,1-.126-.009L2.013,14.24a.885.885,0,0,1-.5-1.507A22.473,22.473,0,0,1,17.325,6.155a.885.885,0,1,1,0,1.771A20.666,20.666,0,0,0,4.11,12.75l6.631.951a.885.885,0,0,1-.126,1.762Z" transform="translate(0.967 4.743)"/><path class="a" d="M19.058,13.218a4.425,4.425,0,1,1,3.13-1.294A4.413,4.413,0,0,1,19.058,13.218Zm0-7.079a2.654,2.654,0,1,0,1.879.776,2.65,2.65,0,0,0-1.879-.776Zm2.5,5.159h.018Z" transform="translate(11.277 3.366)"/></g></svg>