<svg xmlns="http://www.w3.org/2000/svg" width="36.506" height="36.506" viewBox="0 0 36.506 36.506"><defs><style>.a{fill:#f7941e;}</style></defs><path class="a" d="M219.947,176h-3.591a.357.357,0,0,0-.357.357v3.85a.357.357,0,0,0,.357.357h3.636a2.284,2.284,0,0,0,2.281-2.242A2.319,2.319,0,0,0,219.947,176Z" transform="translate(-200.599 -163.451)"/><path class="a" d="M219.947,272h-3.591a.357.357,0,0,0-.357.357v3.85a.357.357,0,0,0,.357.357h3.636a2.284,2.284,0,0,0,2.281-2.242A2.319,2.319,0,0,0,219.947,272Z" transform="translate(-200.599 -252.606)"/><path class="a" d="M31.16,5.346A18.253,18.253,0,0,0,5.346,31.16,18.253,18.253,0,0,0,31.16,5.346Zm-7.2,16.329a4.568,4.568,0,0,1-2.646,4.139.356.356,0,0,0-.206.323v1.21a1.162,1.162,0,0,1-1.086,1.172,1.141,1.141,0,0,1-1.2-1.14V26.6a.357.357,0,0,0-.357-.357H16.9a.357.357,0,0,0-.357.357v.752a1.162,1.162,0,0,1-1.086,1.172,1.141,1.141,0,0,1-1.2-1.14V26.6a.357.357,0,0,0-.357-.357H12.011a1.162,1.162,0,0,1-1.172-1.086,1.141,1.141,0,0,1,1.14-1.2h.784a.357.357,0,0,0,.357-.357v-10.7a.357.357,0,0,0-.357-.357h-.752a1.162,1.162,0,0,1-1.172-1.086,1.141,1.141,0,0,1,1.14-1.2H13.9a.357.357,0,0,0,.357-.357V9.159a1.162,1.162,0,0,1,1.086-1.172,1.141,1.141,0,0,1,1.2,1.14v.784a.357.357,0,0,0,.357.357h1.569a.357.357,0,0,0,.357-.357V9.159a1.162,1.162,0,0,1,1.086-1.172,1.141,1.141,0,0,1,1.2,1.14v1.242a.356.356,0,0,0,.206.323A4.557,4.557,0,0,1,22.669,18a.357.357,0,0,0,0,.5,4.546,4.546,0,0,1,1.289,3.173Z" transform="translate(0)"/></svg>