<svg xmlns="http://www.w3.org/2000/svg" width="36.506" height="36.506" viewBox="0 0 36.506 36.506"><defs><style>.a{fill:#3fc725;}</style></defs><path class="a" d="M31.16,5.346A18.253,18.253,0,0,0,5.346,31.16,18.253,18.253,0,0,0,31.16,5.346ZM18.253,17.112a5.133,5.133,0,0,1,1.4,10.071.358.358,0,0,0-.263.344v.962a1.162,1.162,0,0,1-1.086,1.172,1.141,1.141,0,0,1-1.2-1.14v-.994a.357.357,0,0,0-.261-.343,5.142,5.142,0,0,1-3.731-4.906,1.159,1.159,0,0,1,1.107-1.172,1.141,1.141,0,0,1,1.174,1.14,2.852,2.852,0,1,0,2.852-2.852,5.133,5.133,0,0,1-1.4-10.071.358.358,0,0,0,.263-.344V8.018A1.162,1.162,0,0,1,18.2,6.846a1.141,1.141,0,0,1,1.2,1.14V8.98a.357.357,0,0,0,.261.343,5.142,5.142,0,0,1,3.731,4.906A1.159,1.159,0,0,1,22.279,15.4a1.141,1.141,0,0,1-1.174-1.14,2.852,2.852,0,1,0-2.852,2.852Z" transform="translate(0)"/></svg>