<svg xmlns="http://www.w3.org/2000/svg" width="14.144" height="22.001" viewBox="0 0 14.144 22.001"><defs><style>.a{fill:#fff;}</style></defs><g transform="translate(-80.001 0)"><g transform="translate(80.001 0)"><g transform="translate(0 0)"><path class="a" d="M89.768,10.215h2.805a1.572,1.572,0,0,0,0-3.143h-.786a5.327,5.327,0,0,0-.22-3.929A5.579,5.579,0,0,0,86.523,0H85.454a5.862,5.862,0,0,0-4.322,2.145,1.572,1.572,0,0,0,2.428,2,2.742,2.742,0,0,1,2.114-1h.786a2.444,2.444,0,0,1,2.255,1.32,2.459,2.459,0,0,1-.385,2.546l-.055.063H83.144a1.572,1.572,0,1,0,0,3.143h2.538L84.37,11.786h-2.8a1.572,1.572,0,0,0,0,3.143h.746a5.335,5.335,0,0,0,.2,3.748A5.712,5.712,0,0,0,87.6,22h1.045a5.72,5.72,0,0,0,4.33-2.1,1.572,1.572,0,0,0-2.357-2.051,2.609,2.609,0,0,1-2.122,1.006h-.786a2.53,2.53,0,0,1-2.287-1.446,2.263,2.263,0,0,1,.4-2.42Z" transform="translate(-80.001 0)"/></g></g><g transform="translate(87.859 11.786)"><g transform="translate(0)"><path class="a" d="M243.144,240h-1.572a1.572,1.572,0,1,0,0,3.143h1.572a1.572,1.572,0,0,0,0-3.143Z" transform="translate(-240.001 -240.001)"/></g></g></g></svg>