<svg xmlns="http://www.w3.org/2000/svg" xmlns:xlink="http://www.w3.org/1999/xlink" width="571.947" height="443.866" viewBox="0 0 571.947 443.866"><defs><style>.a{fill:none;}.b{opacity:0.05;}.c{fill:#9ffff8;}.aa,.ab,.d{fill:#42e8e0;}.e,.i{fill:#fff;}.f,.s,.t{fill:#24126a;}.aa,.f{opacity:0.4;}.g{fill:url(#a);}.h,.u,.x{fill:#453c9e;}.h,.v{opacity:0.7;}.i,.x,.y{opacity:0.8;}.j{opacity:0.15;}.k{fill:url(#b);}.l{fill:url(#c);}.m{fill:#18b2a3;}.n{fill:#f7941e;}.o{fill:#fbb040;}.p{fill:url(#d);}.q{fill:url(#e);}.r{fill:url(#f);}.s{opacity:0.6;}.v{fill:url(#g);}.w{fill:url(#h);}.z{opacity:0.1;}.ab{opacity:0.2;}.ac{clip-path:url(#i);}</style><radialGradient id="a" cx="0.688" cy="0.21" r="2.712" gradientTransform="translate(0.211) scale(0.578 1)" gradientUnits="objectBoundingBox"><stop offset="0" stop-color="#fbb040"/><stop offset="0.02" stop-color="#fbb040"/><stop offset="0.11" stop-color="#479af9"/><stop offset="0.21" stop-color="#3382fb"/><stop offset="0.32" stop-color="#1447f8"/><stop offset="0.44" stop-color="#1342f1"/><stop offset="0.58" stop-color="#2465f9"/><stop offset="0.74" stop-color="#1242f8"/><stop offset="1" stop-color="#1f50da"/></radialGradient><linearGradient id="b" x1="17.38" y1="6.108" x2="17.826" y2="4.693" gradientUnits="objectBoundingBox"><stop offset="0" stop-color="#5761d7"/><stop offset="0.04" stop-color="#5c66d9"/><stop offset="0.09" stop-color="#6a73df"/><stop offset="0.14" stop-color="#8289e8"/><stop offset="0.19" stop-color="#a3a7f5"/><stop offset="0.22" stop-color="#bcbeff"/></linearGradient><linearGradient id="c" x1="17.941" y1="6.251" x2="17.644" y2="5.228" gradientUnits="objectBoundingBox"><stop offset="0" stop-color="#c0bff6"/><stop offset="0.29" stop-color="#c5c4f7"/><stop offset="0.64" stop-color="#d3d2f9"/><stop offset="1" stop-color="#e9e9fd"/></linearGradient><linearGradient id="d" x1="17.447" y1="6.307" x2="17.893" y2="4.893" xlink:href="#b"/><radialGradient id="e" cx="0.998" cy="1.066" r="1.305" gradientTransform="matrix(-0.289, -0.86, 0.488, -0.51, 19.216, 23.828)" gradientUnits="objectBoundingBox"><stop offset="0" stop-color="#42e8e0"/><stop offset="0.02" stop-color="#43e0de"/><stop offset="0.11" stop-color="#47bad1"/><stop offset="0.21" stop-color="#4b9ac7"/><stop offset="0.32" stop-color="#4e7fbe"/><stop offset="0.44" stop-color="#506bb7"/><stop offset="0.58" stop-color="#525cb3"/><stop offset="0.74" stop-color="#5354b0"/><stop offset="1" stop-color="#5351af"/></radialGradient><linearGradient id="f" x1="18.009" y1="6.45" x2="17.712" y2="5.428" xlink:href="#c"/><linearGradient id="g" x1="9.278" y1="3.72" x2="8.807" y2="2.701" gradientUnits="objectBoundingBox"><stop offset="0" stop-color="#c0bff6"/><stop offset="0.12" stop-color="#d0cff9"/><stop offset="0.26" stop-color="#e9e9fd"/><stop offset="0.51" stop-color="#c0bff6"/><stop offset="0.62" stop-color="#d0cff9"/><stop offset="0.75" stop-color="#e9e9fd"/><stop offset="1" stop-color="#c0bff6"/></linearGradient><radialGradient id="h" cx="0.958" cy="0.485" r="1.194" gradientTransform="matrix(-0.418, -0.86, 0.706, -0.51, 9.88, 13.224)" gradientUnits="objectBoundingBox"><stop offset="0" stop-color="#42e8e0"/><stop offset="0.02" stop-color="#60c3ff"/><stop offset="0.11" stop-color="#9deefe"/><stop offset="0.21" stop-color="#57b7ff"/><stop offset="0.32" stop-color="#469efc"/><stop offset="0.44" stop-color="#4896f6"/><stop offset="0.58" stop-color="#3485fb"/><stop offset="0.74" stop-color="#103ef8"/><stop offset="1" stop-color="#2557cf"/></radialGradient><clipPath id="i"><path class="a" d="M498.323,243.037l-20.337,11.722-80.946-46.74V118.15l101.283,58.462Z" transform="translate(-397.04 -118.15)"/></clipPath></defs><g transform="translate(-49.732 -5.75)"><g class="b" transform="translate(289.667 254.105)"><path class="c" d="M259.74,340.349l2.491-.331c.263-.194.56-.377.868-.56L455.405,228.452c4.97-2.868,13.642-2.514,19.423.8L587,294.02a11.424,11.424,0,0,1,3.428,2.868l1.325-.388v3.873h0c0,1.805-1.143,3.53-3.348,4.821L396,416.222c-4.97,2.868-13.642,2.5-19.423-.811l-112.08-64.757c-3.21-1.851-4.81-4.227-4.741-6.478h0Z" transform="translate(-259.74 -222.645)"/><path class="d" d="M395.995,412.809,588.313,301.815c4.97-2.868,4.341-7.872-1.394-11.185L474.748,225.872c-5.713-3.313-14.407-3.679-19.423-.811L263.1,336.09c-4.97,2.868-4.353,7.872,1.394,11.185l112.16,64.757C382.4,415.311,391.071,415.677,395.995,412.809Z" transform="translate(-259.74 -223.128)"/><path class="e" d="M493.717,305.1l23.741-13.71c2.205-1.268,1.931-3.5-.617-4.97h0c-2.548-1.474-6.41-1.634-8.615-.354l-23.741,13.756c-2.205,1.28-1.931,3.508.617,4.981h0C487.651,306.222,491.512,306.382,493.717,305.1Z" transform="translate(-227.925 -214.282)"/><path class="e" d="M455.338,327.242l23.741-13.71c2.205-1.28,1.931-3.5-.617-4.97h0c-2.548-1.474-6.409-1.634-8.615-.366l-23.741,13.71c-2.216,1.28-1.931,3.507.617,4.97h0C449.317,328.35,453.178,328.51,455.338,327.242Z" transform="translate(-233.395 -211.127)"/><path class="e" d="M417.038,349.373l23.741-13.71c2.205-1.28,1.931-3.508-.617-4.981h0c-2.559-1.474-6.409-1.634-8.626-.354l-23.73,13.71c-2.216,1.268-1.942,3.5.617,4.97h0C410.972,350.493,414.833,350.642,417.038,349.373Z" transform="translate(-238.853 -207.975)"/><path class="e" d="M378.7,371.482l23.73-13.71c2.216-1.268,1.942-3.5-.617-4.97h0c-2.548-1.474-6.409-1.634-8.614-.354l-23.741,13.71c-2.205,1.28-1.931,3.508.617,4.981h0C372.632,372.624,376.482,372.8,378.7,371.482Z" transform="translate(-244.317 -204.822)"/></g><path class="f" d="M397.407,394.176,560.351,300.1c4.2-2.434,3.679-6.684-1.143-9.483l-95.056-54.84c-4.856-2.8-12.213-3.108-16.418-.674l-162.99,94.028c-4.2,2.422-3.679,6.672,1.143,9.483l95.045,54.84C385.845,396.312,393.2,396.6,397.407,394.176Z" transform="translate(33.085 32.45)"/><path class="c" d="M259.74,271.639l2.491-.331c.263-.194.56-.377.868-.56L455.405,159.742c4.97-2.868,13.642-2.514,19.423.8L587,225.3a11.6,11.6,0,0,1,3.428,2.879l1.325-.388v3.873h0c0,1.817-1.143,3.542-3.348,4.833L396,347.5c-4.97,2.868-13.642,2.514-19.423-.8l-112.08-64.757c-3.21-1.851-4.81-4.239-4.741-6.478h0Z" transform="translate(29.927 21.668)"/><path class="d" d="M395.995,344.1,588.267,233.085c4.97-2.868,4.341-7.872-1.394-11.185L474.7,157.131c-5.713-3.3-14.407-3.667-19.423-.8L263.1,267.337c-4.97,2.868-4.353,7.883,1.394,11.2l112.16,64.757C382.4,346.6,391.071,347.027,395.995,344.1Z" transform="translate(29.927 21.183)"/><path class="g" d="M395.995,344.1,588.267,233.085c4.97-2.868,4.341-7.872-1.394-11.185L474.7,157.131c-5.713-3.3-14.407-3.667-19.423-.8L263.1,267.337c-4.97,2.868-4.353,7.883,1.394,11.2l112.16,64.757C382.4,346.6,391.071,347.027,395.995,344.1Z" transform="translate(29.927 21.183)"/><path class="h" d="M354.663,330.6,564.93,209.2,542.617,196.31,332.35,317.712Z" transform="translate(40.274 27.156)"/><path class="e" d="M588.31,221.635,395.992,332.64c-4.97,2.879-13.641,2.514-19.423-.8L264.49,267.129c-2.571-1.485-4.1-3.3-4.57-5.107-.686,2.514.88,5.358,4.57,7.495l112.16,64.757c5.712,3.313,14.418,3.679,19.423.811L588.344,224.068c2.753-1.588,3.782-3.827,3.188-6.078A6.352,6.352,0,0,1,588.31,221.635Z" transform="translate(29.93 30.245)"/><path class="i" d="M356.707,272.67l63.306-36.549-15.447-8.912L341.26,263.759Z" transform="translate(41.544 31.559)"/><g class="j" transform="translate(49.962 275.982)"><path class="k" d="M49.94,259.432l.194,17.389h0a.72.72,0,0,0,.411.64L240.453,384.514a2.674,2.674,0,0,0,2.4-.114l30.676-18.143a1.062,1.062,0,0,0,.571-.685h0v-.114l-.16-17.526-14.853,8.66L83.8,257.8a2.639,2.639,0,0,0-2.4.126L70.871,264.14Z" transform="translate(-49.932 -240.097)"/><path class="l" d="M83.6,242.5l189.9,107.064c.628.354.56.971-.149,1.394l-30.688,18.132a2.673,2.673,0,0,1-2.4.126L50.364,262.149c-.628-.354-.56-.971.149-1.394L81.2,242.623A2.708,2.708,0,0,1,83.6,242.5Z" transform="translate(-49.933 -242.276)"/></g><g class="b" transform="translate(163.346 107.082)"><path class="c" d="M234.2,157.783c-1.759-20.565-18.28-44.306-36.994-53.058-9.357-4.387-17.469-4.17-23.01-.286h0l-5.792,4.09h1.782c-2.868,4.2-4.25,10.157-3.61,17.549,1.748,20.565,18.28,44.295,36.994,53.047,6.409,3,12.248,3.85,17.058,2.833V183.6l5.872-4.147h.069l.24-.171h0C232.2,175.331,235.061,167.882,234.2,157.783Z" transform="translate(-146.717 -93.44)"/><ellipse class="d" cx="26.403" cy="45.734" rx="26.403" ry="45.734" transform="translate(0 30.205) rotate(-34.89)"/><path class="m" d="M209.152,181.286a28.026,28.026,0,0,1-11.7-2.925c-16.623-7.792-31.43-29.02-33-47.323-.765-8.957,1.714-15.915,6.969-19.583s12.636-3.587,20.794.24c16.623,7.792,31.419,29.02,32.984,47.311.777,8.957-1.7,15.915-6.958,19.583A15.664,15.664,0,0,1,209.152,181.286ZM180.521,109.7a14.681,14.681,0,0,0-8.569,2.525c-4.97,3.427-7.3,10.123-6.569,18.748,1.542,17.994,16.1,38.845,32.47,46.557,7.826,3.667,14.853,3.782,19.857.308s7.312-10.134,6.581-18.749c-1.542-18.006-16.109-38.845-32.47-46.557a26.884,26.884,0,0,0-11.3-2.833Z" transform="translate(-147.017 -92.402)"/></g><path class="n" d="M189.767,97.528c20.005-5,40.822-25.135,46.489-44.969,2.833-9.928,1.337-17.9-3.428-22.759h0l-4.947-5.061.263,1.759c-4.57-2.171-10.705-2.582-17.892-.777-20.005,5-40.822,25.135-46.5,44.958-1.942,6.855-1.851,12.7-.08,17.309l-1.622.263,5.038,5.141h.057l.206.206h0C172.115,98.328,179.919,99.984,189.767,97.528Z" transform="translate(16.006 2.684)"/><ellipse class="o" cx="45.734" cy="26.403" rx="45.734" ry="26.403" transform="translate(159.804 72.01) rotate(-44.04)"/><path class="e" d="M178.41,89.9c-5.267,0-9.643-1.622-12.7-4.787-4.456-4.57-5.553-11.9-3.073-20.565,5.05-17.663,23.65-35.646,41.461-40.1,8.729-2.182,16-.845,20.439,3.759s5.553,11.916,3.085,20.565c-5.05,17.652-23.65,35.635-41.461,40.09a32.071,32.071,0,0,1-7.746,1.04Zm33.418-65.545a31.3,31.3,0,0,0-7.518.994c-17.526,4.387-35.829,22.085-40.787,39.462-2.388,8.317-1.371,15.3,2.845,19.662s11.162,5.61,19.56,3.507h0c17.526-4.387,35.829-22.085,40.8-39.462,2.376-8.317,1.36-15.3-2.856-19.663-2.879-2.971-7.026-4.5-12.042-4.5Z" transform="translate(15.904 2.519)"/><path class="p" d="M49.74,244.592l.194,17.389h0a.7.7,0,0,0,.411.64l189.9,107.064a2.73,2.73,0,0,0,2.411-.126l30.676-18.143a1.063,1.063,0,0,0,.571-.686h0v-.057l-.194-17.56-14.853,8.66L83.6,242.959a2.662,2.662,0,0,0-2.411.126l-10.522,6.227Z" transform="translate(0.001 33.771)"/><path class="q" d="M49.74,244.592l.194,17.389h0a.7.7,0,0,0,.411.64l189.9,107.064a2.73,2.73,0,0,0,2.411-.126l30.676-18.143a1.063,1.063,0,0,0,.571-.686h0v-.057l-.194-17.56-14.853,8.66L83.6,242.959a2.662,2.662,0,0,0-2.411.126l-10.522,6.227Z" transform="translate(0.001 33.771)"/><path class="r" d="M83.4,227.658,273.3,334.722c.617.354.548.971-.16,1.394l-30.676,18.132a2.64,2.64,0,0,1-2.4.126L50.152,247.309c-.617-.343-.548-.971.16-1.382L81,227.783A2.708,2.708,0,0,1,83.4,227.658Z" transform="translate(0 31.591)"/><path class="e" d="M273.3,332.444l-.526-.3-30.311,17.914a2.639,2.639,0,0,1-2.4.126L50.689,243.42l-.377.228c-.708.411-.777,1.04-.16,1.382L240.06,352.1a2.64,2.64,0,0,0,2.4-.126l30.676-18.132C273.843,333.415,273.969,332.8,273.3,332.444Z" transform="translate(0 33.869)"/><path class="s" d="M85.36,252.864l149.257,82.569a101.359,101.359,0,0,1,4.936-17.789L90.558,233.67a100.29,100.29,0,0,0-5.2,19.194Z" transform="translate(5.077 32.48)"/><path class="t" d="M74.746,236.48,253.811,337.432c.423.24.377.663-.1.948L246,342.95a1.828,1.828,0,0,1-1.645.08L65.286,242.067c-.423-.24-.377-.663.114-.948l7.7-4.57a1.828,1.828,0,0,1,1.645-.069Z" transform="translate(2.175 32.857)"/><path class="u" d="M65.286,242.067l3.645,2.057,4.159-2.456a1.828,1.828,0,0,1,1.645-.091l175.42,98.907,3.553-2.1c.48-.286.526-.708.1-.948L74.746,236.48a1.828,1.828,0,0,0-1.645.08l-7.7,4.57C64.909,241.4,64.863,241.827,65.286,242.067Z" transform="translate(2.175 32.858)"/><path class="v" d="M520.822,89.736,371.85,5.75h0c.274,26.575-18.052,59.079-40.936,72.606l-203.5,120.283c-26.895,15.892-48.454,54.109-48.111,85.345h0L228.272,367.97h0c-.32-31.236,21.216-69.453,48.111-85.345l203.5-120.283c22.85-13.527,41.2-46.032,40.936-72.606Z" transform="translate(4.213)"/><path class="w" d="M520.822,89.736,371.85,5.75h0c.274,26.575-18.052,59.079-40.936,72.606l-203.5,120.283c-26.895,15.892-48.454,54.109-48.111,85.345h0L228.272,367.97h0c-.32-31.236,21.216-69.453,48.111-85.345l203.5-120.283c22.85-13.527,41.2-46.032,40.936-72.606Z" transform="translate(4.213)"/><path class="x" d="M79.3,249.8l148.971,83.985c0-1.371,0-2.765.091-4.159h0L79.4,245.65C79.334,247.044,79.289,248.426,79.3,249.8Z" transform="translate(4.213 34.187)"/><g class="y" transform="translate(246.218 119.418)"><path class="e" d="M294.439,172.09l29.351,16.543-2.8,1.657L291.64,173.735Z" transform="translate(-211.745 -95.714)"/><path class="e" d="M281.259,164.66l10.568,5.952-2.8,1.657-10.568-5.952Z" transform="translate(-213.623 -96.772)"/><path class="e" d="M271.049,158.9l7.186,4.044-2.8,1.657-7.186-4.044Z" transform="translate(-215.078 -97.593)"/><path class="e" d="M311.729,175.37l16,9.014-2.8,1.657-16-9.014Z" transform="translate(-209.281 -95.246)"/><path class="e" d="M290.649,163.49l19.594,11.048-2.8,1.645L287.85,165.135Z" transform="translate(-212.285 -96.939)"/><path class="e" d="M280.439,157.73l7.175,4.044-2.8,1.657-7.175-4.044Z" transform="translate(-213.74 -97.76)"/><path class="e" d="M270.719,152.25l7.175,4.044-2.8,1.657-7.175-4.044Z" transform="translate(-215.125 -98.541)"/><path class="e" d="M321.189,174.24l11.574,6.524-2.8,1.657L318.39,175.9Z" transform="translate(-207.933 -95.407)"/><path class="e" d="M313.809,170.08l3.953,2.228-2.8,1.657-3.953-2.228Z" transform="translate(-208.984 -96)"/><path class="e" d="M303.6,164.32l7.175,4.056-2.8,1.645-7.175-4.044Z" transform="translate(-210.439 -96.821)"/><path class="e" d="M299.539,155.57l42.707,24.084-2.8,1.645L296.74,157.227Z" transform="translate(-211.018 -98.068)"/><path class="e" d="M286.359,148.14l10.568,5.964-2.8,1.645L283.56,149.8Z" transform="translate(-212.896 -99.127)"/><path class="e" d="M332.389,167.63l11.574,6.524-2.811,1.645-11.562-6.524Z" transform="translate(-206.337 -96.349)"/><path class="e" d="M308.619,154.23,331.286,167l-2.8,1.657L305.82,155.875Z" transform="translate(-209.724 -98.259)"/><path class="e" d="M298.409,148.47l7.175,4.044-2.8,1.657-7.175-4.044Z" transform="translate(-211.179 -99.08)"/><path class="e" d="M327.389,158.35l23.673,13.344-2.8,1.657L324.59,160Z" transform="translate(-207.049 -97.672)"/><path class="e" d="M308.479,147.68l17.115,9.654-2.8,1.657-17.115-9.654Z" transform="translate(-209.744 -99.192)"/><path class="e" d="M294.419,139.76l11.574,6.524-2.8,1.657-11.574-6.524Z" transform="translate(-211.748 -100.321)"/><path class="e" d="M346.709,162.78l8,4.5-2.8,1.657-8-4.513Z" transform="translate(-204.296 -97.04)"/><path class="e" d="M333.539,155.35l10.568,5.952-2.8,1.657L330.74,157Z" transform="translate(-206.173 -98.099)"/><path class="e" d="M314.709,144.73l17.023,9.6-2.8,1.657-17.023-9.6Z" transform="translate(-208.856 -99.613)"/><path class="e" d="M337.869,151.32l24.5,13.813-2.8,1.657-24.5-13.813Z" transform="translate(-205.556 -98.673)"/><path class="e" d="M313.849,137.79,336.8,150.723,334,152.38,311.05,139.447Z" transform="translate(-208.979 -100.601)"/><path class="e" d="M303.639,132.03l7.186,4.044-2.8,1.657-7.186-4.044Z" transform="translate(-210.434 -101.422)"/><path class="e" d="M293.839,126.51l7.186,4.044-2.8,1.657-7.186-4.056Z" transform="translate(-211.83 -102.209)"/><path class="e" d="M352.059,152.86l14.67,8.272-2.8,1.657-14.67-8.272Z" transform="translate(-203.533 -98.454)"/><path class="e" d="M244.869,144.142,224.509,132.66l-2.8,1.657,20.359,11.471Z" transform="translate(-221.71 -101.333)"/><path class="e" d="M246.1,138.376l-16-9.026-2.8,1.657,16,9.014Z" transform="translate(-220.912 -101.804)"/><path class="e" d="M247.271,132.574l-11.562-6.524-2.8,1.657,11.562,6.524Z" transform="translate(-220.114 -102.274)"/><path class="e" d="M258.14,132.223,241.3,122.74l-2.8,1.657,16.841,9.483Z" transform="translate(-219.317 -102.746)"/><path class="e" d="M258.473,125.954,246.9,119.43l-2.8,1.657,11.574,6.524Z" transform="translate(-218.519 -103.218)"/><path class="e" d="M267.169,124.392,252.5,116.12l-2.8,1.657,14.67,8.272Z" transform="translate(-217.721 -103.69)"/><path class="e" d="M266.087,117.323l-8-4.513-2.8,1.657,8,4.513Z" transform="translate(-216.925 -104.161)"/><path class="e" d="M279.182,118.239l-15.492-8.729-2.8,1.645,15.492,8.74Z" transform="translate(-216.127 -104.632)"/><path class="e" d="M283.959,114.472l-14.67-8.272-2.8,1.657,14.67,8.272Z" transform="translate(-215.329 -105.103)"/><path class="e" d="M342.669,147.57l6.238,3.519-2.8,1.657-6.238-3.519Z" transform="translate(-204.872 -99.208)"/><path class="e" d="M326.449,138.43l14.041,7.918-2.8,1.657-14.041-7.929Z" transform="translate(-207.183 -100.51)"/><path class="e" d="M341.549,113.25l23.707,13.367-2.8,1.657L338.75,114.907Z" transform="translate(-205.031 -104.099)"/><path class="e" d="M327.339,105.24l9.334,5.267-2.8,1.657L324.54,106.9Z" transform="translate(-207.056 -105.24)"/></g><g class="y" transform="translate(184.534 175.869)"><path class="e" d="M240.439,204l29.351,16.555-2.8,1.645L237.64,205.657Z" transform="translate(-157.756 -147.617)"/><path class="e" d="M227.269,196.57l10.568,5.964-2.8,1.657-10.568-5.964Z" transform="translate(-159.633 -148.676)"/><path class="e" d="M217.059,190.82l7.175,4.044-2.8,1.657-7.175-4.056Z" transform="translate(-161.088 -149.496)"/><path class="e" d="M257.729,207.28l16,9.026-2.8,1.657-16-9.026Z" transform="translate(-155.292 -147.15)"/><path class="e" d="M236.649,195.4l19.605,11.048-2.8,1.657L233.85,197.057Z" transform="translate(-158.296 -148.843)"/><path class="e" d="M226.439,189.64l7.186,4.056-2.8,1.645L223.64,191.3Z" transform="translate(-159.751 -149.664)"/><path class="e" d="M216.729,184.16l7.175,4.056-2.8,1.657-7.175-4.056Z" transform="translate(-161.135 -150.445)"/><path class="e" d="M267.2,206.16l11.574,6.524-2.8,1.657L264.4,207.817Z" transform="translate(-153.943 -147.31)"/><path class="e" d="M259.809,201.99l3.953,2.228-2.8,1.657-3.953-2.228Z" transform="translate(-154.996 -147.904)"/><path class="e" d="M249.6,196.24l7.186,4.044-2.8,1.657L246.8,197.9Z" transform="translate(-156.451 -148.723)"/><path class="e" d="M245.539,187.48l42.707,24.084-2.8,1.657L242.74,189.137Z" transform="translate(-157.029 -149.972)"/><path class="e" d="M232.359,180.06l10.568,5.952-2.8,1.657-10.568-5.964Z" transform="translate(-158.908 -151.029)"/><path class="e" d="M190.867,176.051,170.519,164.58l-2.8,1.657,20.348,11.471Z" transform="translate(-167.72 -153.235)"/><path class="e" d="M192.1,170.284l-16-9.014-2.8,1.657,16,9.014Z" transform="translate(-166.923 -153.707)"/><path class="e" d="M193.283,164.484l-11.574-6.524-2.8,1.657,11.574,6.524Z" transform="translate(-166.125 -154.178)"/><path class="e" d="M204.138,164.144l-16.829-9.494-2.8,1.657,16.829,9.494Z" transform="translate(-165.327 -154.65)"/></g><g class="z" transform="translate(449.362 199.383)"><path class="c" d="M481.317,242.154c0-20.622-14.476-45.7-32.333-55.983-8.946-5.164-17.046-5.644-22.907-2.285h0l-6.112,3.576,1.782.16c-3.233,3.953-5.107,9.768-5.107,17.138,0,20.565,14.476,45.7,32.344,55.983,6.135,3.542,11.871,4.878,16.761,4.273l-.137,1.645,6.2-3.633h.08l.251-.149h0C477.81,259.463,481.317,252.3,481.317,242.154Z" transform="translate(-397.076 -174.303)"/><ellipse class="d" cx="26.403" cy="45.734" rx="26.403" ry="45.734" transform="translate(0 26.403) rotate(-30)"/></g><path class="aa" d="M452.253,276.668c-22.313,0-44.626-4.9-61.615-14.715C374.14,252.413,365,239.72,365,226.2s9.14-26.22,25.6-35.749c33.967-19.617,89.241-19.617,123.208,0,16.521,9.529,25.615,22.233,25.615,35.749s-9.14,26.278-25.6,35.749C496.868,271.756,474.555,276.668,452.253,276.668Zm0-100.3c-22.187,0-44.386,4.879-61.284,14.635-16.3,9.414-25.284,21.913-25.284,35.2s8.98,25.775,25.3,35.189c33.784,19.514,88.773,19.514,122.556,0l.171.274-.171-.274c16.315-9.414,25.3-21.925,25.3-35.2S529.841,200.418,513.526,191c-16.9-9.757-39.085-14.636-61.284-14.636Z" transform="translate(44.927 24.225)"/><path class="ab" d="M455.172,291.871c-28.311,0-56.622-6.215-78.182-18.657-20.942-12.1-32.47-28.2-32.47-45.323s11.528-33.235,32.47-45.323c43.107-24.884,113.245-24.884,156.352,0,20.942,12.1,32.47,28.186,32.47,45.323s-11.528,33.235-32.47,45.323C511.794,285.656,483.483,291.871,455.172,291.871Zm0-127.332c-28.2,0-56.383,6.192-77.85,18.589-20.736,11.962-32.15,27.866-32.15,44.763s11.425,32.79,32.15,44.763c42.935,24.781,112.788,24.781,155.712,0,20.736-11.973,32.15-27.866,32.15-44.763s-11.425-32.79-32.15-44.763c-21.479-12.4-49.722-18.589-77.873-18.589Z" transform="translate(42.009 22.538)"/><path class="d" d="M449.946,264.681c-17.583,0-35.166-3.862-48.556-11.6-13.025-7.518-20.2-17.537-20.2-28.208s7.175-20.691,20.2-28.22c26.769-15.458,70.321-15.458,97.113,0,13.025,7.529,20.2,17.549,20.2,28.22s-7.186,20.668-20.211,28.208C485.1,260.819,467.529,264.681,449.946,264.681Zm0-78.981c-17.457,0-34.926,3.839-48.225,11.516-12.819,7.4-19.88,17.229-19.88,27.66s7.061,20.257,19.88,27.66c26.6,15.355,69.864,15.355,96.462,0h0c12.807-7.4,19.891-17.275,19.891-27.66s-7.061-20.257-19.88-27.66c-13.322-7.655-30.791-11.516-48.26-11.516Z" transform="translate(47.234 25.553)"/><g class="ac" transform="translate(446.533 134.168)"><path class="n" d="M481.317,242.154c0-20.622-14.476-45.7-32.333-55.983-8.946-5.164-17.046-5.644-22.907-2.285h0l-6.112,3.576,1.782.16c-3.233,3.953-5.107,9.768-5.107,17.138,0,20.565,14.476,45.7,32.344,55.983,6.135,3.542,11.871,4.878,16.761,4.273l-.137,1.645,6.2-3.633h.08l.251-.149h0C477.81,259.463,481.317,252.3,481.317,242.154Z" transform="translate(-394.247 -109.087)"/><ellipse class="o" cx="26.403" cy="45.734" rx="26.403" ry="45.734" transform="translate(2.829 91.619) rotate(-30)"/><path class="e" d="M456.233,264.27a27,27,0,0,1-13.242-4.044c-16.178-9.346-29.351-32.162-29.351-50.841,0-9.14,3.108-16,8.763-19.263s13.127-2.536,21.056,2.045c16.189,9.346,29.351,32.15,29.351,50.841,0,9.14-3.108,16-8.763,19.251A15.343,15.343,0,0,1,456.233,264.27Zm-26.015-75.234a14.579,14.579,0,0,0-7.358,1.885c-5.347,3.1-8.295,9.643-8.295,18.463,0,18.383,12.956,40.833,28.894,50.03,7.632,4.41,14.773,5.13,20.131,2.045s8.295-9.643,8.295-18.451c0-18.394-12.956-40.845-28.894-50.042A26.049,26.049,0,0,0,430.218,189.036Z" transform="translate(-394.674 -108.181)"/></g><path class="n" d="M147.237,273.944c0-20.622-14.476-45.7-32.333-55.983-8.946-5.164-17.046-5.644-22.907-2.285h0l-6.112,3.576,1.782.171c-3.233,3.942-5.107,9.757-5.107,17.138,0,20.622,14.476,45.7,32.344,55.983,6.135,3.542,11.871,4.878,16.761,4.273l-.137,1.634,6.2-3.633h.08l.251-.137h0C143.73,291.265,147.237,284.09,147.237,273.944Z" transform="translate(4.678 29.611)"/><ellipse class="o" cx="26.403" cy="45.734" rx="26.403" ry="45.734" transform="translate(67.67 262.107) rotate(-30)"/><path class="e" d="M121.523,294.451a26.037,26.037,0,0,1-12.75-3.9C93.2,281.529,80.53,259.616,80.53,241.633c0-8.809,3-15.39,8.443-18.531s12.636-2.445,20.268,1.965c15.572,8.991,28.243,30.928,28.243,48.911,0,8.809-3,15.4-8.443,18.531A14.749,14.749,0,0,1,121.523,294.451ZM96.5,222.119a13.95,13.95,0,0,0-7.072,1.805c-5.141,2.971-8,9.266-8,17.732,0,17.686,12.465,39.268,27.786,48.111,7.323,4.239,14.2,4.936,19.343,1.965s8-9.266,8-17.732c0-17.686-12.465-39.268-27.786-48.111a25.055,25.055,0,0,0-12.271-3.77Z" transform="translate(4.389 30.698)"/><g class="b" transform="translate(67.664 342.471)"><path class="c" d="M147.237,367.4c0-20.622-14.476-45.7-32.333-55.983-8.946-5.164-17.046-5.644-22.907-2.285h0l-6.112,3.576,1.782.16c-3.233,3.953-5.107,9.768-5.107,17.138,0,20.622,14.476,45.7,32.344,55.983,6.135,3.542,11.871,4.879,16.761,4.273l-.137,1.645,6.2-3.633h.08l.251-.149h0C143.73,384.69,147.237,377.55,147.237,367.4Z" transform="translate(-62.986 -299.542)"/><ellipse class="d" cx="26.403" cy="45.734" rx="26.403" ry="45.734" transform="translate(0 26.403) rotate(-30)"/><path class="m" d="M121.523,387.911A25.934,25.934,0,0,1,108.773,384C93.2,375.013,80.53,353.076,80.53,335.093c0-8.809,3-15.39,8.443-18.531s12.659-2.445,20.268,1.919c15.572,8.992,28.243,30.939,28.243,48.922,0,8.809-3,15.39-8.443,18.531a14.852,14.852,0,0,1-7.518,1.977ZM96.5,315.545a13.962,13.962,0,0,0-7.072,1.794c-5.141,2.971-8,9.266-8,17.732,0,17.686,12.465,39.268,27.786,48.111,7.335,4.239,14.2,4.936,19.343,1.965s8-9.266,8-17.732c0-17.686-12.465-39.268-27.786-48.111A24.952,24.952,0,0,0,96.5,315.545Z" transform="translate(-63.275 -298.455)"/></g></g></svg>